# xmcd
#
# Track frame offsets: 
#        150
#        10655
#        31435
#        51442
#        64087
#        78720
#        95585
#        108612
#        117135
#        130885
#        145832
#        159377
#
# Disc length: 2301 seconds
#
# Revision: 5
# Processed by: cddbd v1.5.2PL0 Copyright (c) Steve Scherf et al.
# Submitted via: ExactAudioCopyFreeDBPlugin 1.0
#
DISCID=a208fb0c
DTITLE=T Bone Burnett - The Criminal Under My Own Hat
DYEAR=1992
DGENRE=Christian Alternative
TTITLE0=Over You
TTITLE1=Tear This Building Down
TTITLE2=It's Not Too Late
TTITLE3=Humans From Earth
TTITLE4=Primitives
TTITLE5=Criminals
TTITLE6=Every Little Thing
TTITLE7=I Can Explain Everything
TTITLE8=Any Time At All
TTITLE9=I Can Explain Everything (Reprise)
TTITLE10=The Long Time Now
TTITLE11=Kill Switch
EXTD=YEAR: 1992
EXTT0=
EXTT1=
EXTT2=
EXTT3=
EXTT4=
EXTT5=
EXTT6=
EXTT7=
EXTT8=
EXTT9=
EXTT10=
EXTT11=
PLAYORDER=
